<svg width="40" height="40" viewBox="0 0 40 40" fill="none" xmlns="http://www.w3.org/2000/svg">
<rect width="40" height="40" rx="20" fill="white"/>
<path d="M17.2441 23.928C17.4633 22.7889 17.7582 21.9837 19.792 21.0802C21.4782 21.9837 21.4633 22.7889 21.2441 23.928L21.0552 24.91H24.0552L24.2441 23.928C24.5199 22.4943 24.1671 21.0017 22.6949 19.9215C24.5714 18.9002 25.4797 17.5058 25.7555 16.0721L25.9444 15.0901H22.9444L22.7555 16.0721C22.5363 17.2112 22.2679 17.8789 20.2416 18.7431C18.5479 17.8789 18.5363 17.2112 18.7555 16.0721L18.9444 15.0901H15.9444L15.7555 16.0721C15.4797 17.5058 15.8514 18.9002 17.3349 19.9215C15.4471 21.0017 14.5199 22.4943 14.2441 23.928L14.0552 24.91H17.0552L17.2441 23.928Z" fill="#C0160A"/>
</svg>
