<svg width="48" height="48" viewBox="0 0 48 48" fill="none" xmlns="http://www.w3.org/2000/svg">
<path d="M24.5256 12.0199C25.8356 11.9999 27.1356 12.0099 28.4356 11.9999C28.5156 13.5299 29.0656 15.0899 30.1856 16.1699C31.3056 17.2799 32.8856 17.7899 34.4256 17.9599V21.9899C32.9856 21.9399 31.5356 21.6399 30.2256 21.0199C29.6556 20.7599 29.1256 20.4299 28.6056 20.0899C28.5956 23.0099 28.6156 25.9299 28.5856 28.8399C28.5056 30.2399 28.0456 31.6299 27.2356 32.7799C25.9256 34.6999 23.6556 35.9499 21.3256 35.9899C19.8956 36.0699 18.4656 35.6799 17.2456 34.9599C15.2256 33.7699 13.8056 31.5899 13.5956 29.2499C13.5756 28.7499 13.5656 28.2499 13.5856 27.7599C13.7656 25.8599 14.7056 24.0399 16.1656 22.7999C17.8256 21.3599 20.1456 20.6699 22.3156 21.0799C22.3356 22.5599 22.2756 24.0399 22.2756 25.5199C21.2856 25.1999 20.1256 25.2899 19.2556 25.8899C18.6256 26.2999 18.1456 26.9299 17.8956 27.6399C17.6856 28.1499 17.7456 28.7099 17.7556 29.2499C17.9956 30.8899 19.5756 32.2699 21.2556 32.1199C22.3756 32.1099 23.4456 31.4599 24.0256 30.5099C24.2156 30.1799 24.4256 29.8399 24.4356 29.4499C24.5356 27.6599 24.4956 25.8799 24.5056 24.0899C24.5156 20.0599 24.4956 16.0399 24.5256 12.0199Z" fill="white"/>
</svg>
