<svg width="48" height="48" viewBox="0 0 48 48" fill="none" xmlns="http://www.w3.org/2000/svg">
<rect width="48" height="48" rx="24" fill="white"/>
<path d="M35.953 16.5702C35.0545 16.9658 34.1026 17.2269 33.128 17.3452C34.1541 16.7285 34.9224 15.7613 35.291 14.6222C34.34 15.1772 33.286 15.5812 32.164 15.8062C31.4238 15.0146 30.4429 14.4896 29.3736 14.3127C28.3044 14.1358 27.2067 14.3169 26.2509 14.8278C25.2952 15.3387 24.5349 16.151 24.0881 17.1383C23.6412 18.1257 23.533 19.233 23.78 20.2882C19.69 20.0952 16.067 18.1302 13.64 15.1622C13.1988 15.912 12.9687 16.7672 12.974 17.6372C12.974 19.3472 13.844 20.8502 15.162 21.7332C14.3809 21.7083 13.617 21.4971 12.934 21.1172V21.1772C12.9336 22.3136 13.3263 23.4151 14.0455 24.295C14.7647 25.1748 15.7662 25.7787 16.88 26.0042C16.1583 26.1976 15.4024 26.2266 14.668 26.0892C14.9841 27.0672 15.5977 27.9221 16.423 28.5347C17.2484 29.1473 18.2444 29.4869 19.272 29.5062C17.5315 30.8722 15.3825 31.6135 13.17 31.6112C12.78 31.6112 12.391 31.5882 12 31.5442C14.2557 32.9885 16.8785 33.7552 19.557 33.7532C28.61 33.7532 33.555 26.2572 33.555 19.7682C33.555 19.5582 33.555 19.3482 33.54 19.1382C34.506 18.4431 35.3392 17.58 36 16.5902L35.953 16.5702Z" fill="#C0160A"/>
</svg>
