<svg width="48" height="48" viewBox="0 0 48 48" fill="none" xmlns="http://www.w3.org/2000/svg">
<path d="M35.498 18.186C35.3624 17.6753 35.095 17.2091 34.7226 16.8342C34.3502 16.4594 33.8858 16.1889 33.376 16.05C31.505 15.545 24 15.545 24 15.545C24 15.545 16.495 15.545 14.623 16.05C14.1134 16.1892 13.6493 16.4597 13.2771 16.8346C12.9049 17.2094 12.6376 17.6754 12.502 18.186C12 20.07 12 24 12 24C12 24 12 27.93 12.502 29.814C12.6376 30.3247 12.905 30.7908 13.2774 31.1657C13.6498 31.5406 14.1142 31.811 14.624 31.95C16.495 32.455 24 32.455 24 32.455C24 32.455 31.505 32.455 33.377 31.95C33.8869 31.8111 34.3513 31.5407 34.7237 31.1658C35.0961 30.7909 35.3635 30.3248 35.499 29.814C36 27.93 36 24 36 24C36 24 36 20.07 35.498 18.186ZM21.545 27.568V20.432L27.818 24L21.545 27.568Z" fill="white"/>
</svg>
